<svg width="70" height="50" viewBox="0 0 70 50" fill="none" xmlns="http://www.w3.org/2000/svg">
<path d="M18.3548 30.464H10.6588L9.22882 34H3.97682L12.0108 15.8H17.0808L25.1408 34H19.7848L18.3548 30.464ZM16.8468 26.668L14.5068 20.844L12.1668 26.668H16.8468Z" fill="#BE0000"/>
<path d="M38.7943 30.464H31.0983L29.6683 34H24.4163L32.4503 15.8H37.5203L45.5803 34H40.2243L38.7943 30.464ZM37.2863 26.668L34.9463 20.844L32.6063 26.668H37.2863Z" fill="#EC0000"/>
<path d="M59.2337 30.464H51.5377L50.1077 34H44.8557L52.8897 15.8H57.9597L66.0197 34H60.6637L59.2337 30.464ZM57.7257 26.668L55.3857 20.844L53.0457 26.668H57.7257Z" fill="#FF5E5E"/>
</svg>
